# xmcd CD database file
#
# Track frame offsets:
#	150
#	17312
#	33200
#	53685
#	68492
#	92702
#	109572
#	128785
#	144802
#	162050
#
# Disc length: 2406 seconds
#
# Revision: 1
# Processed by: cddbd v1.5.1PL2 Copyright (c) Steve Scherf et al.
# Submitted via: CDex 1.51
#
DISCID=6809640a
DTITLE=Kid Howard - Kid Howard At San Jacinto Hall
DYEAR=2001
DGENRE=Jazz
TTITLE0=Bogalusa Strut
TTITLE1=Royal Garden Blues
TTITLE2=Old Rugged Cross
TTITLE3=Victory Bounce
TTITLE4=Old Rugged Cross #2
TTITLE5=Collegiate
TTITLE6=Collegiate #2
TTITLE7=Sing On
TTITLE8=Blues For Old San Jacinto
TTITLE9=Shake It And Break It
EXTD=YEAR: 2001
EXTT0=
EXTT1=
EXTT2=
EXTT3=
EXTT4=
EXTT5=
EXTT6=
EXTT7=
EXTT8=
EXTT9=
PLAYORDER=
